<svg width="623" height="29" viewBox="0 0 623 29" fill="none" xmlns="http://www.w3.org/2000/svg">
<path d="M6.70636 2.728V28H0.550359V2.728H6.70636ZM26.4675 15.04C27.9315 15.352 29.1075 16.084 29.9955 17.236C30.8835 18.364 31.3275 19.66 31.3275 21.124C31.3275 23.236 30.5835 24.916 29.0955 26.164C27.6315 27.388 25.5795 28 22.9395 28H11.1675V2.728H22.5435C25.1115 2.728 27.1155 3.316 28.5555 4.492C30.0195 5.668 30.7515 7.264 30.7515 9.28C30.7515 10.768 30.3555 12.004 29.5635 12.988C28.7955 13.972 27.7635 14.656 26.4675 15.04ZM17.3235 12.952H21.3555C22.3635 12.952 23.1315 12.736 23.6595 12.304C24.2115 11.848 24.4875 11.188 24.4875 10.324C24.4875 9.46 24.2115 8.8 23.6595 8.344C23.1315 7.888 22.3635 7.66 21.3555 7.66H17.3235V12.952ZM21.8595 23.032C22.8915 23.032 23.6835 22.804 24.2355 22.348C24.8115 21.868 25.0995 21.184 25.0995 20.296C25.0995 19.408 24.7995 18.712 24.1995 18.208C23.6235 17.704 22.8195 17.452 21.7875 17.452H17.3235V23.032H21.8595ZM44.042 28.252C42.194 28.252 40.538 27.952 39.074 27.352C37.61 26.752 36.434 25.864 35.546 24.688C34.682 23.512 34.226 22.096 34.178 20.44H40.73C40.826 21.376 41.15 22.096 41.702 22.6C42.254 23.08 42.974 23.32 43.862 23.32C44.774 23.32 45.494 23.116 46.022 22.708C46.55 22.276 46.814 21.688 46.814 20.944C46.814 20.32 46.598 19.804 46.166 19.396C45.758 18.988 45.242 18.652 44.618 18.388C44.018 18.124 43.154 17.824 42.026 17.488C40.394 16.984 39.062 16.48 38.03 15.976C36.998 15.472 36.11 14.728 35.366 13.744C34.622 12.76 34.25 11.476 34.25 9.892C34.25 7.54 35.102 5.704 36.806 4.384C38.51 3.04 40.73 2.368 43.466 2.368C46.25 2.368 48.494 3.04 50.198 4.384C51.902 5.704 52.814 7.552 52.934 9.928H46.274C46.226 9.112 45.926 8.476 45.374 8.02C44.822 7.54 44.114 7.3 43.25 7.3C42.506 7.3 41.906 7.504 41.45 7.912C40.994 8.296 40.766 8.86 40.766 9.604C40.766 10.42 41.15 11.056 41.918 11.512C42.686 11.968 43.886 12.46 45.518 12.988C47.15 13.54 48.47 14.068 49.478 14.572C50.51 15.076 51.398 15.808 52.142 16.768C52.886 17.728 53.258 18.964 53.258 20.476C53.258 21.916 52.886 23.224 52.142 24.4C51.422 25.576 50.366 26.512 48.974 27.208C47.582 27.904 45.938 28.252 44.042 28.252ZM80.3714 13.24V16.696H65.5754V13.24H80.3714Z" fill="black"/>
<path d="M99.6575 2.98V28H95.5535V2.98H99.6575ZM115.054 7.84C116.614 7.84 118.006 8.164 119.23 8.812C120.478 9.46 121.45 10.42 122.146 11.692C122.842 12.964 123.19 14.5 123.19 16.3V28H119.122V16.912C119.122 15.136 118.678 13.78 117.79 12.844C116.902 11.884 115.69 11.404 114.154 11.404C112.618 11.404 111.394 11.884 110.482 12.844C109.594 13.78 109.15 15.136 109.15 16.912V28H105.046V8.164H109.15V10.432C109.822 9.616 110.674 8.98 111.706 8.524C112.762 8.068 113.878 7.84 115.054 7.84ZM133.213 11.512V22.492C133.213 23.236 133.381 23.776 133.717 24.112C134.077 24.424 134.677 24.58 135.517 24.58H138.037V28H134.797C132.949 28 131.533 27.568 130.549 26.704C129.565 25.84 129.073 24.436 129.073 22.492V11.512H126.733V8.164H129.073V3.232H133.213V8.164H138.037V11.512H133.213ZM159.999 17.596C159.999 18.34 159.951 19.012 159.855 19.612H144.699C144.819 21.196 145.407 22.468 146.463 23.428C147.519 24.388 148.815 24.868 150.351 24.868C152.559 24.868 154.119 23.944 155.031 22.096H159.459C158.859 23.92 157.767 25.42 156.183 26.596C154.623 27.748 152.679 28.324 150.351 28.324C148.455 28.324 146.751 27.904 145.239 27.064C143.751 26.2 142.575 25 141.711 23.464C140.871 21.904 140.451 20.104 140.451 18.064C140.451 16.024 140.859 14.236 141.675 12.7C142.515 11.14 143.679 9.94 145.167 9.1C146.679 8.26 148.407 7.84 150.351 7.84C152.223 7.84 153.891 8.248 155.355 9.064C156.819 9.88 157.959 11.032 158.775 12.52C159.591 13.984 159.999 15.676 159.999 17.596ZM155.715 16.3C155.691 14.788 155.151 13.576 154.095 12.664C153.039 11.752 151.731 11.296 150.171 11.296C148.755 11.296 147.543 11.752 146.535 12.664C145.527 13.552 144.927 14.764 144.735 16.3H155.715ZM168.142 11.044C168.742 10.036 169.534 9.256 170.518 8.704C171.526 8.128 172.714 7.84 174.082 7.84V12.088H173.038C171.43 12.088 170.206 12.496 169.366 13.312C168.55 14.128 168.142 15.544 168.142 17.56V28H164.038V8.164H168.142V11.044ZM187.862 7.84C189.422 7.84 190.814 8.164 192.038 8.812C193.286 9.46 194.258 10.42 194.954 11.692C195.65 12.964 195.998 14.5 195.998 16.3V28H191.93V16.912C191.93 15.136 191.486 13.78 190.598 12.844C189.71 11.884 188.498 11.404 186.962 11.404C185.426 11.404 184.202 11.884 183.29 12.844C182.402 13.78 181.958 15.136 181.958 16.912V28H177.854V8.164H181.958V10.432C182.63 9.616 183.482 8.98 184.514 8.524C185.57 8.068 186.686 7.84 187.862 7.84ZM199.865 17.992C199.865 16 200.273 14.236 201.089 12.7C201.929 11.164 203.057 9.976 204.473 9.136C205.913 8.272 207.497 7.84 209.225 7.84C210.785 7.84 212.141 8.152 213.293 8.776C214.469 9.376 215.405 10.132 216.101 11.044V8.164H220.241V28H216.101V25.048C215.405 25.984 214.457 26.764 213.257 27.388C212.057 28.012 210.689 28.324 209.153 28.324C207.449 28.324 205.889 27.892 204.473 27.028C203.057 26.14 201.929 24.916 201.089 23.356C200.273 21.772 199.865 19.984 199.865 17.992ZM216.101 18.064C216.101 16.696 215.813 15.508 215.237 14.5C214.685 13.492 213.953 12.724 213.041 12.196C212.129 11.668 211.145 11.404 210.089 11.404C209.033 11.404 208.049 11.668 207.137 12.196C206.225 12.7 205.481 13.456 204.905 14.464C204.353 15.448 204.077 16.624 204.077 17.992C204.077 19.36 204.353 20.56 204.905 21.592C205.481 22.624 206.225 23.416 207.137 23.968C208.073 24.496 209.057 24.76 210.089 24.76C211.145 24.76 212.129 24.496 213.041 23.968C213.953 23.44 214.685 22.672 215.237 21.664C215.813 20.632 216.101 19.432 216.101 18.064ZM230.42 11.512V22.492C230.42 23.236 230.588 23.776 230.924 24.112C231.284 24.424 231.884 24.58 232.724 24.58H235.244V28H232.004C230.156 28 228.74 27.568 227.756 26.704C226.772 25.84 226.28 24.436 226.28 22.492V11.512H223.94V8.164H226.28V3.232H230.42V8.164H235.244V11.512H230.42ZM241.114 5.536C240.37 5.536 239.746 5.284 239.242 4.78C238.738 4.276 238.486 3.652 238.486 2.908C238.486 2.164 238.738 1.54 239.242 1.036C239.746 0.531999 240.37 0.279999 241.114 0.279999C241.834 0.279999 242.446 0.531999 242.95 1.036C243.454 1.54 243.706 2.164 243.706 2.908C243.706 3.652 243.454 4.276 242.95 4.78C242.446 5.284 241.834 5.536 241.114 5.536ZM243.13 8.164V28H239.026V8.164H243.13ZM257.122 28.324C255.25 28.324 253.558 27.904 252.046 27.064C250.534 26.2 249.346 25 248.482 23.464C247.618 21.904 247.186 20.104 247.186 18.064C247.186 16.048 247.63 14.26 248.518 12.7C249.406 11.14 250.618 9.94 252.154 9.1C253.69 8.26 255.406 7.84 257.302 7.84C259.198 7.84 260.914 8.26 262.45 9.1C263.986 9.94 265.198 11.14 266.086 12.7C266.974 14.26 267.418 16.048 267.418 18.064C267.418 20.08 266.962 21.868 266.05 23.428C265.138 24.988 263.89 26.2 262.306 27.064C260.746 27.904 259.018 28.324 257.122 28.324ZM257.122 24.76C258.178 24.76 259.162 24.508 260.074 24.004C261.01 23.5 261.766 22.744 262.342 21.736C262.918 20.728 263.206 19.504 263.206 18.064C263.206 16.624 262.93 15.412 262.378 14.428C261.826 13.42 261.094 12.664 260.182 12.16C259.27 11.656 258.286 11.404 257.23 11.404C256.174 11.404 255.19 11.656 254.278 12.16C253.39 12.664 252.682 13.42 252.154 14.428C251.626 15.412 251.362 16.624 251.362 18.064C251.362 20.2 251.902 21.856 252.982 23.032C254.086 24.184 255.466 24.76 257.122 24.76ZM281.483 7.84C283.043 7.84 284.435 8.164 285.659 8.812C286.907 9.46 287.879 10.42 288.575 11.692C289.271 12.964 289.619 14.5 289.619 16.3V28H285.551V16.912C285.551 15.136 285.107 13.78 284.219 12.844C283.331 11.884 282.119 11.404 280.583 11.404C279.047 11.404 277.823 11.884 276.911 12.844C276.023 13.78 275.579 15.136 275.579 16.912V28H271.475V8.164H275.579V10.432C276.251 9.616 277.103 8.98 278.135 8.524C279.191 8.068 280.307 7.84 281.483 7.84ZM293.486 17.992C293.486 16 293.894 14.236 294.71 12.7C295.55 11.164 296.678 9.976 298.094 9.136C299.534 8.272 301.118 7.84 302.846 7.84C304.406 7.84 305.762 8.152 306.914 8.776C308.09 9.376 309.026 10.132 309.722 11.044V8.164H313.862V28H309.722V25.048C309.026 25.984 308.078 26.764 306.878 27.388C305.678 28.012 304.31 28.324 302.774 28.324C301.07 28.324 299.51 27.892 298.094 27.028C296.678 26.14 295.55 24.916 294.71 23.356C293.894 21.772 293.486 19.984 293.486 17.992ZM309.722 18.064C309.722 16.696 309.434 15.508 308.858 14.5C308.306 13.492 307.574 12.724 306.662 12.196C305.75 11.668 304.766 11.404 303.71 11.404C302.654 11.404 301.67 11.668 300.758 12.196C299.846 12.7 299.102 13.456 298.526 14.464C297.974 15.448 297.698 16.624 297.698 17.992C297.698 19.36 297.974 20.56 298.526 21.592C299.102 22.624 299.846 23.416 300.758 23.968C301.694 24.496 302.678 24.76 303.71 24.76C304.766 24.76 305.75 24.496 306.662 23.968C307.574 23.44 308.306 22.672 308.858 21.664C309.434 20.632 309.722 19.432 309.722 18.064ZM323.357 1.36V28H319.253V1.36H323.357ZM351.488 15.148C352.832 15.388 353.972 16.096 354.908 17.272C355.844 18.448 356.312 19.78 356.312 21.268C356.312 22.54 355.976 23.692 355.304 24.724C354.656 25.732 353.708 26.536 352.46 27.136C351.212 27.712 349.76 28 348.104 28H338.096V2.98H347.636C349.34 2.98 350.804 3.268 352.028 3.844C353.252 4.42 354.176 5.2 354.8 6.184C355.424 7.144 355.736 8.224 355.736 9.424C355.736 10.864 355.352 12.064 354.584 13.024C353.816 13.984 352.784 14.692 351.488 15.148ZM342.2 13.492H347.276C348.62 13.492 349.664 13.192 350.408 12.592C351.176 11.968 351.56 11.08 351.56 9.928C351.56 8.8 351.176 7.924 350.408 7.3C349.664 6.652 348.62 6.328 347.276 6.328H342.2V13.492ZM347.744 24.652C349.136 24.652 350.228 24.316 351.02 23.644C351.812 22.972 352.208 22.036 352.208 20.836C352.208 19.612 351.788 18.64 350.948 17.92C350.108 17.2 348.992 16.84 347.6 16.84H342.2V24.652H347.744ZM378.736 8.164V28H374.632V25.66C373.984 26.476 373.132 27.124 372.076 27.604C371.044 28.06 369.94 28.288 368.764 28.288C367.204 28.288 365.8 27.964 364.552 27.316C363.328 26.668 362.356 25.708 361.636 24.436C360.94 23.164 360.592 21.628 360.592 19.828V8.164H364.66V19.216C364.66 20.992 365.104 22.36 365.992 23.32C366.88 24.256 368.092 24.724 369.628 24.724C371.164 24.724 372.376 24.256 373.264 23.32C374.176 22.36 374.632 20.992 374.632 19.216V8.164H378.736ZM391.351 28.324C389.791 28.324 388.387 28.048 387.139 27.496C385.915 26.92 384.943 26.152 384.223 25.192C383.503 24.208 383.119 23.116 383.071 21.916H387.319C387.391 22.756 387.787 23.464 388.507 24.04C389.251 24.592 390.175 24.868 391.279 24.868C392.431 24.868 393.319 24.652 393.943 24.22C394.591 23.764 394.915 23.188 394.915 22.492C394.915 21.748 394.555 21.196 393.835 20.836C393.139 20.476 392.023 20.08 390.487 19.648C388.999 19.24 387.787 18.844 386.851 18.46C385.915 18.076 385.099 17.488 384.403 16.696C383.731 15.904 383.395 14.86 383.395 13.564C383.395 12.508 383.707 11.548 384.331 10.684C384.955 9.796 385.843 9.1 386.995 8.596C388.171 8.092 389.515 7.84 391.027 7.84C393.283 7.84 395.095 8.416 396.463 9.568C397.855 10.696 398.599 12.244 398.695 14.212H394.591C394.519 13.324 394.159 12.616 393.511 12.088C392.863 11.56 391.987 11.296 390.883 11.296C389.803 11.296 388.975 11.5 388.399 11.908C387.823 12.316 387.535 12.856 387.535 13.528C387.535 14.056 387.727 14.5 388.111 14.86C388.495 15.22 388.963 15.508 389.515 15.724C390.067 15.916 390.883 16.168 391.963 16.48C393.403 16.864 394.579 17.26 395.491 17.668C396.427 18.052 397.231 18.628 397.903 19.396C398.575 20.164 398.923 21.184 398.947 22.456C398.947 23.584 398.635 24.592 398.011 25.48C397.387 26.368 396.499 27.064 395.347 27.568C394.219 28.072 392.887 28.324 391.351 28.324ZM405.47 5.536C404.726 5.536 404.102 5.284 403.598 4.78C403.094 4.276 402.842 3.652 402.842 2.908C402.842 2.164 403.094 1.54 403.598 1.036C404.102 0.531999 404.726 0.279999 405.47 0.279999C406.19 0.279999 406.802 0.531999 407.306 1.036C407.81 1.54 408.062 2.164 408.062 2.908C408.062 3.652 407.81 4.276 407.306 4.78C406.802 5.284 406.19 5.536 405.47 5.536ZM407.486 8.164V28H403.382V8.164H407.486ZM422.882 7.84C424.442 7.84 425.834 8.164 427.058 8.812C428.306 9.46 429.278 10.42 429.974 11.692C430.67 12.964 431.018 14.5 431.018 16.3V28H426.95V16.912C426.95 15.136 426.506 13.78 425.618 12.844C424.73 11.884 423.518 11.404 421.982 11.404C420.446 11.404 419.222 11.884 418.31 12.844C417.422 13.78 416.978 15.136 416.978 16.912V28H412.874V8.164H416.978V10.432C417.65 9.616 418.502 8.98 419.534 8.524C420.59 8.068 421.706 7.84 422.882 7.84ZM454.433 17.596C454.433 18.34 454.385 19.012 454.289 19.612H439.133C439.253 21.196 439.841 22.468 440.897 23.428C441.953 24.388 443.249 24.868 444.785 24.868C446.993 24.868 448.553 23.944 449.465 22.096H453.893C453.293 23.92 452.201 25.42 450.617 26.596C449.057 27.748 447.113 28.324 444.785 28.324C442.889 28.324 441.185 27.904 439.673 27.064C438.185 26.2 437.009 25 436.145 23.464C435.305 21.904 434.885 20.104 434.885 18.064C434.885 16.024 435.293 14.236 436.109 12.7C436.949 11.14 438.113 9.94 439.601 9.1C441.113 8.26 442.841 7.84 444.785 7.84C446.657 7.84 448.325 8.248 449.789 9.064C451.253 9.88 452.393 11.032 453.209 12.52C454.025 13.984 454.433 15.676 454.433 17.596ZM450.149 16.3C450.125 14.788 449.585 13.576 448.529 12.664C447.473 11.752 446.165 11.296 444.605 11.296C443.189 11.296 441.977 11.752 440.969 12.664C439.961 13.552 439.361 14.764 439.169 16.3H450.149ZM465.671 28.324C464.111 28.324 462.707 28.048 461.459 27.496C460.235 26.92 459.263 26.152 458.543 25.192C457.823 24.208 457.439 23.116 457.391 21.916H461.639C461.711 22.756 462.107 23.464 462.827 24.04C463.571 24.592 464.495 24.868 465.599 24.868C466.751 24.868 467.639 24.652 468.263 24.22C468.911 23.764 469.235 23.188 469.235 22.492C469.235 21.748 468.875 21.196 468.155 20.836C467.459 20.476 466.343 20.08 464.807 19.648C463.319 19.24 462.107 18.844 461.171 18.46C460.235 18.076 459.419 17.488 458.723 16.696C458.051 15.904 457.715 14.86 457.715 13.564C457.715 12.508 458.027 11.548 458.651 10.684C459.275 9.796 460.163 9.1 461.315 8.596C462.491 8.092 463.835 7.84 465.347 7.84C467.603 7.84 469.415 8.416 470.783 9.568C472.175 10.696 472.919 12.244 473.015 14.212H468.911C468.839 13.324 468.479 12.616 467.831 12.088C467.183 11.56 466.307 11.296 465.203 11.296C464.123 11.296 463.295 11.5 462.719 11.908C462.143 12.316 461.855 12.856 461.855 13.528C461.855 14.056 462.047 14.5 462.431 14.86C462.815 15.22 463.283 15.508 463.835 15.724C464.387 15.916 465.203 16.168 466.283 16.48C467.723 16.864 468.899 17.26 469.811 17.668C470.747 18.052 471.551 18.628 472.223 19.396C472.895 20.164 473.243 21.184 473.267 22.456C473.267 23.584 472.955 24.592 472.331 25.48C471.707 26.368 470.819 27.064 469.667 27.568C468.539 28.072 467.207 28.324 465.671 28.324ZM484.902 28.324C483.342 28.324 481.938 28.048 480.69 27.496C479.466 26.92 478.494 26.152 477.774 25.192C477.054 24.208 476.67 23.116 476.622 21.916H480.87C480.942 22.756 481.338 23.464 482.058 24.04C482.802 24.592 483.726 24.868 484.83 24.868C485.982 24.868 486.87 24.652 487.494 24.22C488.142 23.764 488.466 23.188 488.466 22.492C488.466 21.748 488.106 21.196 487.386 20.836C486.69 20.476 485.574 20.08 484.038 19.648C482.55 19.24 481.338 18.844 480.402 18.46C479.466 18.076 478.65 17.488 477.954 16.696C477.282 15.904 476.946 14.86 476.946 13.564C476.946 12.508 477.258 11.548 477.882 10.684C478.506 9.796 479.394 9.1 480.546 8.596C481.722 8.092 483.066 7.84 484.578 7.84C486.834 7.84 488.646 8.416 490.014 9.568C491.406 10.696 492.15 12.244 492.246 14.212H488.142C488.07 13.324 487.71 12.616 487.062 12.088C486.414 11.56 485.538 11.296 484.434 11.296C483.354 11.296 482.526 11.5 481.95 11.908C481.374 12.316 481.086 12.856 481.086 13.528C481.086 14.056 481.278 14.5 481.662 14.86C482.046 15.22 482.514 15.508 483.066 15.724C483.618 15.916 484.434 16.168 485.514 16.48C486.954 16.864 488.13 17.26 489.042 17.668C489.978 18.052 490.782 18.628 491.454 19.396C492.126 20.164 492.474 21.184 492.498 22.456C492.498 23.584 492.186 24.592 491.562 25.48C490.938 26.368 490.05 27.064 488.898 27.568C487.77 28.072 486.438 28.324 484.902 28.324ZM514.528 28.252C512.848 28.252 511.336 27.964 509.992 27.388C508.648 26.788 507.592 25.948 506.824 24.868C506.056 23.788 505.672 22.528 505.672 21.088H510.064C510.16 22.168 510.58 23.056 511.324 23.752C512.092 24.448 513.16 24.796 514.528 24.796C515.944 24.796 517.048 24.46 517.84 23.788C518.632 23.092 519.028 22.204 519.028 21.124C519.028 20.284 518.776 19.6 518.272 19.072C517.792 18.544 517.18 18.136 516.436 17.848C515.716 17.56 514.708 17.248 513.412 16.912C511.78 16.48 510.448 16.048 509.416 15.616C508.408 15.16 507.544 14.464 506.824 13.528C506.104 12.592 505.744 11.344 505.744 9.784C505.744 8.344 506.104 7.084 506.824 6.004C507.544 4.924 508.552 4.096 509.848 3.52C511.144 2.944 512.644 2.656 514.348 2.656C516.772 2.656 518.752 3.268 520.288 4.492C521.848 5.692 522.712 7.348 522.88 9.46H518.344C518.272 8.548 517.84 7.768 517.048 7.12C516.256 6.472 515.212 6.148 513.916 6.148C512.74 6.148 511.78 6.448 511.036 7.048C510.292 7.648 509.92 8.512 509.92 9.64C509.92 10.408 510.148 11.044 510.604 11.548C511.084 12.028 511.684 12.412 512.404 12.7C513.124 12.988 514.108 13.3 515.356 13.636C517.012 14.092 518.356 14.548 519.388 15.004C520.444 15.46 521.332 16.168 522.052 17.128C522.796 18.064 523.168 19.324 523.168 20.908C523.168 22.18 522.82 23.38 522.124 24.508C521.452 25.636 520.456 26.548 519.136 27.244C517.84 27.916 516.304 28.252 514.528 28.252ZM526.643 18.064C526.643 16.024 527.051 14.236 527.867 12.7C528.707 11.14 529.859 9.94 531.323 9.1C532.787 8.26 534.467 7.84 536.363 7.84C538.763 7.84 540.743 8.416 542.303 9.568C543.887 10.696 544.955 12.316 545.507 14.428H541.079C540.719 13.444 540.143 12.676 539.351 12.124C538.559 11.572 537.563 11.296 536.363 11.296C534.683 11.296 533.339 11.896 532.331 13.096C531.347 14.272 530.855 15.928 530.855 18.064C530.855 20.2 531.347 21.868 532.331 23.068C533.339 24.268 534.683 24.868 536.363 24.868C538.739 24.868 540.311 23.824 541.079 21.736H545.507C544.931 23.752 543.851 25.36 542.267 26.56C540.683 27.736 538.715 28.324 536.363 28.324C534.467 28.324 532.787 27.904 531.323 27.064C529.859 26.2 528.707 25 527.867 23.464C527.051 21.904 526.643 20.104 526.643 18.064ZM559.856 7.84C561.368 7.84 562.712 8.164 563.888 8.812C565.088 9.46 566.024 10.42 566.696 11.692C567.392 12.964 567.74 14.5 567.74 16.3V28H563.672V16.912C563.672 15.136 563.228 13.78 562.34 12.844C561.452 11.884 560.24 11.404 558.704 11.404C557.168 11.404 555.944 11.884 555.032 12.844C554.144 13.78 553.7 15.136 553.7 16.912V28H549.596V1.36H553.7V10.468C554.396 9.628 555.272 8.98 556.328 8.524C557.408 8.068 558.584 7.84 559.856 7.84ZM581.579 28.324C579.707 28.324 578.015 27.904 576.503 27.064C574.991 26.2 573.803 25 572.939 23.464C572.075 21.904 571.643 20.104 571.643 18.064C571.643 16.048 572.087 14.26 572.975 12.7C573.863 11.14 575.075 9.94 576.611 9.1C578.147 8.26 579.863 7.84 581.759 7.84C583.655 7.84 585.371 8.26 586.907 9.1C588.443 9.94 589.655 11.14 590.543 12.7C591.431 14.26 591.875 16.048 591.875 18.064C591.875 20.08 591.419 21.868 590.507 23.428C589.595 24.988 588.347 26.2 586.763 27.064C585.203 27.904 583.475 28.324 581.579 28.324ZM581.579 24.76C582.635 24.76 583.619 24.508 584.531 24.004C585.467 23.5 586.223 22.744 586.799 21.736C587.375 20.728 587.663 19.504 587.663 18.064C587.663 16.624 587.387 15.412 586.835 14.428C586.283 13.42 585.551 12.664 584.639 12.16C583.727 11.656 582.743 11.404 581.687 11.404C580.631 11.404 579.647 11.656 578.735 12.16C577.847 12.664 577.139 13.42 576.611 14.428C576.083 15.412 575.819 16.624 575.819 18.064C575.819 20.2 576.359 21.856 577.439 23.032C578.543 24.184 579.923 24.76 581.579 24.76ZM604.536 28.324C602.664 28.324 600.972 27.904 599.46 27.064C597.948 26.2 596.76 25 595.896 23.464C595.032 21.904 594.6 20.104 594.6 18.064C594.6 16.048 595.044 14.26 595.932 12.7C596.82 11.14 598.032 9.94 599.568 9.1C601.104 8.26 602.82 7.84 604.716 7.84C606.612 7.84 608.328 8.26 609.864 9.1C611.4 9.94 612.612 11.14 613.5 12.7C614.388 14.26 614.832 16.048 614.832 18.064C614.832 20.08 614.376 21.868 613.464 23.428C612.552 24.988 611.304 26.2 609.72 27.064C608.16 27.904 606.432 28.324 604.536 28.324ZM604.536 24.76C605.592 24.76 606.576 24.508 607.488 24.004C608.424 23.5 609.18 22.744 609.756 21.736C610.332 20.728 610.62 19.504 610.62 18.064C610.62 16.624 610.344 15.412 609.792 14.428C609.24 13.42 608.508 12.664 607.596 12.16C606.684 11.656 605.7 11.404 604.644 11.404C603.588 11.404 602.604 11.656 601.692 12.16C600.804 12.664 600.096 13.42 599.568 14.428C599.04 15.412 598.776 16.624 598.776 18.064C598.776 20.2 599.316 21.856 600.396 23.032C601.5 24.184 602.88 24.76 604.536 24.76ZM622.993 1.36V28H618.889V1.36H622.993Z" fill="#686565"/>
</svg>
