<svg width="58" height="58" viewBox="0 0 58 58" fill="none" xmlns="http://www.w3.org/2000/svg">
<path d="M29 0C13.0152 0 0 13.0152 0 29C0 36.8648 3.248 44.4976 8.9088 49.9264C13.9896 54.8216 20.5784 57.6056 27.608 57.9304C27.956 57.9536 28.3272 58 28.6752 58C28.7216 58 28.7912 58 28.8376 58C28.884 58 28.9536 58 29 58C36.4936 58 43.5928 55.1696 49.0216 49.996C54.8216 44.4512 58 37.004 58 29C58 13.0152 44.9848 0 29 0ZM48.5112 47.1656C47.444 43.384 42.3864 41.3424 38.5816 39.8344L37.2824 39.3008C34.8 38.28 34.8 37.3288 34.8 35.96C34.8 34.9856 35.2872 33.5936 36.1688 32.7584C38.4192 30.7864 39.6024 28.072 39.6024 24.9168C39.6024 18.5368 35.148 13.92 29 13.92C22.8752 13.92 18.6064 18.444 18.6064 24.9168C18.6064 28.2112 19.72 30.856 21.8776 32.7584C22.7824 33.5704 23.1768 34.9856 23.1768 35.96C23.1768 36.9344 23.1768 38.1408 20.1608 39.3704C16.4488 40.9016 11.5304 42.9896 9.28 46.9336C4.8488 42.0384 2.32 35.612 2.32 29C2.32 14.2912 14.2912 2.32 29 2.32C43.7088 2.32 55.68 14.2912 55.68 29C55.68 35.8208 53.128 42.2008 48.5112 47.1656Z" fill="#35AF86"/>
</svg>
